<svg xmlns="http://www.w3.org/2000/svg" xml:space="preserve" viewBox="0 0 496 496"><path d="M152.042 293.646c2.185-.104 4.074.177 6.193-1.652-6.296-4.155-4.416-8.727-.59-13.377.716-.87 1.356-2.049 1.458-3.138.906-9.672 4.931-18.638 6.299-28.177.49-3.425.593-7.066-.007-10.453-.969-5.464-2.07-10.802.31-15.544-.768-2.167-2.29-2.236-3.413-2.847-3.91-2.127-5.527-5.399-4.14-9.601 3.393-10.271 6.023-20.985 10.963-30.478 2.627-5.048 5.851-9.576 7.032-15.346.589-2.874 3.804-2.998 6.21-3.249 5.825-.607 12.067.535 16.09 4.011 4.073 3.52 6.128 9.326 10.345 13.415 1.95 1.89-5.395 13.4-9.045 15.09 3.923 8.01 9.008 11.293 17.27 9.781 3.687-.674 6.484-3.674 7.597-7.824.572-2.132.51-6.084 3.998-5.037 3.203.962 1.206 4.192.881 6.524-1.976 14.207-8.79 27.064-11.445 41.081-.42 2.223-.95 4.425-1.554 7.206 3.903-2.532 6.047-5.667 8.273-8.765 3.958-5.509 4.916-5.597 10.424-1.97 4.364 2.875 7.642 6.884 11.41 10.723 3.945-2.238 5.153-6.446 7.354-9.83 1.726-2.654 3.313-4.726 6.684-2.347 2.42 1.71 3.514-.135 4.79-1.769 4.598-5.883 4.704-6.03 11.35-2.743 3.11 1.538 4.993 1.2 7.168-1.562 3.705-4.704 7.89-9.026 11.776-13.59 2.515-2.954 5.246-3 7.67-.332 2.743 3.02 4.946 6.502 6.782 10.756-3.356.229-3.807-2.983-6.033-3.796-6.749 2.605-4.014 10.754-8.592 15.07-1.25-2.985 1.53-5.799-.018-8.902-3.68 1.844-.878 6.322-3.925 8.216-2.938-.757-.83-5.401-4.387-5.774-4.672 3.304-4.864 3.764-.776 7.466 3.72 3.37 6.383 7.56 9.375 11.68 3.88-1.762 5.06-5.223 6.741-8.142 4.228-7.34 8.65-14.522 13.654-21.381 2.433-3.335 4.781-4.895 8.97-2.54.752-4.553 3.847-6.813 6.842-9.236 5.796-4.69 5.977-8.366.72-13.712-1.747-1.776-3.683-3.388-5.66-4.91-4.975-3.831-6.685-8.971-6.133-15 1.184-12.955-2.985-17.826-15.804-18.364-.643-.027-1.28-.215-2.029-.347.268-2.508 2.689-2.885 3.852-4.371 1.3-1.66 2.608-3.299.894-5.286-1.47-1.704-3.476-2.036-5.429-.862-2.422 1.454-4.679 3.181-7.088 4.658-2.428 1.488-4.952 3.008-7.907 1.3-2.917-1.685-3.99-4.374-3.748-7.61.161-2.148.466-4.288.784-6.42 1.27-8.495-2.88-12.5-11.254-10.291-5.955 1.57-11.187 1.432-15.475-3.52-.979-1.13-1.776-2.415-2.71-3.587-1.665-2.088-3.388-4.147-5.723-5.524-4.366-2.575-8.447-.603-9.121 4.422-.26 1.938-.293 3.905-.467 6.403-22.296-3.549-43.933-3.365-64.685 6.052 24.5-20.73 82.318-30.807 127.041-7.94 32.423 16.58 54.816 41.995 65.948 76.656 11.089 34.524 7.647 68.256-8.504 101 3.584 1.565 6.742.739 9.792.918 2.397.14 6.077-.61 6.094 2.608.02 3.86-3.926 2.696-6.338 2.7-57.491.095-114.984.133-172.476.138-25.496.001-50.992-.093-76.489-.145-1-.002-2.002.019-2.998-.041-1.72-.105-3.627-.36-3.782-2.45-.173-2.337 1.97-2.486 3.55-2.547 3.915-.153 7.84-.05 12.931-.05-11.204-22.769-16.745-45.396-14.807-70.545 2.018 3.223 1.233 6.089 2.098 8.57.923 2.65 1.299 5.488 1.938 8.238 3.83 16.482 12.321 30.446 23.344 43.018 2.451 2.796 5.195 5.234 9.657 5.224m117.48-39.703c1.121 1.169.931 3.283 2.699 3.901 1.847-.02 2.297-3.314 4.657-1.826.506 2.012-1.098 3.087-1.936 4.415-1.844 2.925-3.864 3.114-5.46-.211-2.907-6.058-7.808-10.274-12.935-14.29-1.76-1.379-3.32-3.39-5.953-.922-2.39 2.24-2.04 4.073-.388 6.482 2.916 4.256 5.601 8.67 8.35 13.04.366.581.369 1.253-.009 1.527-2.12 1.032-2.243-1.914-3.873-1.535-.328.88.968 2.087-.959 2.6-3.793-5.354-6.193-11.736-10.28-16.33-1.956 5.665.362 11.033 1.913 16.51.638 2.253 1.129 4.511 1.024 6.877-.084 1.91.699 3.609 2.736 3.38 4.686-.528 7.188 2.455 10.088 5.275 5.274 5.13 8.823 4.928 14.122-.312 6.059-5.99 10.593-6.54 17.666-2.145 5.147 3.199 6.675 2.58 8.22-3.332 1.418-5.417 2.991-6.546 7.391-5.304 7.183 2.028 10.554.188 12.89-6.885 2.644-8.002 1.375-16.682 5.478-25.473-7.316 2.1-4.32 7.267-5.233 10.739-3.029 1.269-4.382-2.179-7.184-2.174-.692.884.052 3.01-1.734 3.143-6.707 1.4-3.544-6.805-7.372-7.665-6.014 2.885-4.119 13.123-13.008 13.038 1.259 2.395 3.274 4.925 2.913 8.262-2.705.665-3.559-1.257-4.431-2.718-2.047-3.426-3.807-7.022-5.82-10.47-.824-1.411-2.2-3.85-2.983-3.721-5.987.98-2.977-2.843-2.681-4.884.319-2.203 2.164-4.501-.515-6.313-2.757-1.865-4.822-4.368-6.676-7.065-5.717 4.773-5.69 4.84-1.906 10.443 1.165 1.725 3.07 3.41 1.158 7.19-2.172-4.79-5.674-6.903-9.72-9.7 2.188 6.555 3.956 12.283 9.75 16.453m-101.399 26.324c-1.204 2.184-.39 4.294.544 6.198 2.068 4.214 9.212 6.938 11.002 4.108 2.575-4.07 8.683-6.148 7.282-12.633-.337-1.56 1.295-2.597 2.826-3.033 2.132-.607 4.504-1.216 4.577-3.833.064-2.294-2.121-3.009-3.919-3.972-5.07-2.718-5.906-6.16-2.49-11.003 2.524-3.58 4.26-7.492 5.85-11.506.483-1.218 1.043-2.429-.397-3.568-3.413-2.702-9.386-1.698-10.854 2.398-4.37 12.186-10.809 23.55-14.42 36.844m37.672-51.641c6.244 3.173 7.305 6.248 3.908 12.368-2.416 4.353-5.23 8.484-7.699 12.81-.97 1.7-2.676 3.441-.983 6.411 2.732-5.561 8.46-8.285 9.509-14.587.757-4.55 2.553-8.92 3.744-13.408 1.753-6.608 3.38-13.25 5.062-19.877-3.874 3.01-7.305 4.633-11.75 2.477-1.164-.564-2.565-.65-3.864-.92-7.798-1.627-10.301.155-11.666 8.387 4.33 2.007 8.687 4.026 13.74 6.339m27.683 30.468 10.178 12.487c-1.723-9.157-5.027-16.408-7.28-23.86-1.276-.579-1.024 1.27-2.388.859-1.548-4.609-2.396-9.762-5.384-14.82-3.785 7.581-2.973 15.344-4.049 22.63 1.136.725 2.278-.761 3.088.854-.65 3.879-4.881 7.039-3.239 11.834 2.511-2.167 4.044-4.845 5.239-7.792.566-1.397.727-3.57 3.835-2.192m2.586 20.192c1.494-1.878 3.79-1.404 5.964-1.863-2.189-1.29-4.616-.603-6.654-2.158-7.186-5.482-9.424-4.645-12.594 4.671 2.544-1.393 4.624-.853 6.591.62 2.251 1.686 4.314 1.21 6.693-1.27m99.74-32.111c-1.524-.812-3.006-1.188-4.492.505.453.868 1.003 1.69 1.322 2.593.376 1.067.424 2.254.839 3.3 1.189 3.003 4.061 2.11 6.754-2.407-4.62 2.043-2.759-2.198-4.423-3.991m-6.191 7.425c1.728-2.604 1.367-3.62-2.444-6.398l-3.069 5.968c1.905 1.045 3.395.358 5.513.43m.676-19.114 3.734 5.27c-.133-4.924-2.485-7.095-5.719-8.961-.205 1.745 1.18 2.172 1.985 3.691zM213.699 351.042c-1.122-3.093-2.237-5.811-3.46-8.792 3.707-1.287 3.532 2.463 5.68 3.668 2.017-4.924 6.405-4.305 10.59-4.188 1.413.039 2.848.42 2.806 2.145-.05 2.098-2.046.853-3.138 1.489 1.834 1.336 4.672 1.745 4.265 4.868-.379 2.908-5.985 4.161-8.271 2.15-2.134-1.878 2.964-4.972-1.68-6.212-2.378 3.784-4.284 7.867-5.74 13.678h161.431c-2.08 4.144-4.657 3.293-6.756 3.295-45.309.038-90.617.019-135.926.012-37.812-.005-75.625.004-113.437-.045-2.311-.002-4.975.704-6.86-1.923 1.823-2.248 4.14-1.465 6.13-1.47 27.818-.072 55.636-.073 83.454-.093 8.235-.006 8.235-.006 10.912-8.582zM201.016 316.164c.237 3.516-2.48 4.81-4.146 6.687.421 3.332 3.515 5.365 3.775 8.813-2.454 1.203-4.84.48-7.102.443-1.348-2.446-.915-5.304-3.249-7.06-1.974 1.921-.105 4.492-1.133 6.498-5.886 1.505-6.467 1.037-6.335-4.649.093-3.98-.028-7.966.011-11.948.014-1.423-.4-3.004 1.325-3.936 4.388-2.37 14.016.34 16.854 5.152m-11.667 2.22c-.132 2.982 1.283 3.403 3.619 2.13 1.927-1.05 1.874-2.885 1.674-4.71-.134-1.226-.723-2.407-2.037-2.342-2.549.128-2.8 2.293-3.256 4.921zM307.026 330.743c-4.912 2.912-5.413 2.616-10.393-5.92-1.606.76-1.03 2.22-.994 3.385.034 1.127.688 2.245-.05 3.364-6.362 1.582-6.9 1.07-6.167-5.228.286-2.46.069-4.974.245-7.452.176-2.471-1.321-4.839-.246-7.846 4.404-.464 8.993-1.085 13.474.434 4.173 1.414 6.248 5.62 3.592 7.984-4.815 4.284-1.903 7.407.539 11.279m-9.101-17.586c-2.49 2.22-3.075 4.87-2 8.012 2.484.338 4.217-.46 4.705-2.748.446-2.093.748-4.41-2.705-5.264zM266.341 328.938c-.854 3.929-.854 3.929-5.991 2.78-1.143-2.005-.442-4.209-.515-6.322-.081-2.346-1.254-3.242-3.449-3.256-2.727-.018-2.672 1.68-2.564 3.713.368 6.94.11 7.142-6.359 5.722-.052-5.983.804-12.082-.326-18.132-.43-2.298 1.28-2.761 3.138-2.726 1.837.035 3.905-.165 3.807 2.617-.046 1.32-.265 2.64-.474 3.95-.301 1.882-.027 3.388 2.267 3.547 2.294.159 3.952-.521 3.91-3.247-.031-1.98-.007-3.96-.007-5.943 2.106-1.47 4.149-1.078 6.547-.38 0 5.756 0 11.52.016 17.677zM175.228 311.13c4.716 3.077 4.819 3.64 1.724 8.847 2.83 1.99 5.695 4.42 3.768 8.397-1.78 3.672-5.45 4.116-9.032 3.966-3.073-.13-6.304.814-9.423-1.028.647-6.6.575-13.186.027-19.96 4.32-1.084 8.422-.814 12.936-.222m-1.438 17.022c1.207-4.78.299-5.855-5.263-5.707.16 2.49-1.205 5.174 1.175 7.317 1.578 1.421 2.647-.028 4.088-1.61m-5.173-10.836c.034 2.05 1.246 2.061 2.644 1.416 1.62-.748 2.576-1.991 2.243-3.904-.152-.875-.692-1.652-1.525-1.71-2.516-.177-2.535 2.046-3.362 4.198zM222.388 328.145c-3.549 4.781-8.188 5.016-12.83 3.618-4.55-1.37-6.048-5.438-6.502-9.776-.591-5.647 3.484-10.68 8.91-11.26 6.777-.724 11.497 2.895 12.241 9.423.31 2.72-.135 5.304-1.819 7.995m-7.686-14.542c-4.968 3.293-5.427 8.41-5.14 13.596.118 2.16 1.517 3.899 4.102 2.052 3.912-2.796 4.87-11.677 1.038-15.648zM322.314 331.988c-2.914.183-5.413.392-7.898.278-5.223-.24-5.728-1.197-3.74-6.595 2.074-.031 2.237 2.234 3.612 3.043 1.817 1.069 3.775 3.11 5.592.533 1.692-2.398-.796-3.538-2.342-4.603-1.631-1.125-3.544-1.834-5.213-2.911-2.228-1.438-3.777-3.395-3.04-6.256.695-2.702 2.683-4.315 5.346-4.585 3.598-.366 7.262-.734 10.782.403.76 2.042-.025 3.583-.675 5.152-2.305-.268-2.753-2.26-4.118-3.142-1.298-.839-2.524-.937-3.533.341-1.063 1.347-.535 2.601.708 3.41 1.527.993 3.205 1.755 4.823 2.606 2.391 1.258 4.733 2.462 4.716 5.784-.017 3.312-1.739 5.233-5.02 6.542zM286.163 315.383c-.918 2.474-1.943 1.533-2.975.48-1.643-1.676-3.324-3.272-6.086-2.778-1.307 2.042-1.39 4.316-1.457 6.548 2.5 2.525 4.206-.985 6.321-.783 1.684 1.627 1.218 3.33.627 5.095-2.284 1.065-3.906-2.06-6.43-.678-.617 2.223-.298 4.522.672 6.73 3.68.638 5.378-2.576 8.241-3.696 1.73 1.671 1.125 3.573 1.08 5.648-4.898.85-9.531.282-14.136.354-2.424.038-3.142-1.277-2.773-3.565.904-5.605.548-11.236-.079-17.49 5.343-1.078 10.595-.76 15.765-.315 2.414.208 1.182 2.616 1.23 4.45zM230.723 314.137c-1.148 1.086-2.008 2.06-3.094 3.291-1.437-2.026-1.622-3.857-1.621-6.408a109.154 109.154 0 0 1 18.646-.04c.795 2.543.836 4.434-.66 6.323-2.07-.244-1.785-3.196-4.158-3.421-2.647 3.968-1.503 8.53-1.273 12.814.324 6.044-.052 6.538-5.888 4.806 0-4.5.085-8.947-.049-13.39-.044-1.452.85-3.501-1.903-3.975z"/><path d="M195.124 340.21c.041 2.782.031 5.1.147 7.412.188 3.724-.857 5.97-5.256 5.72-3.658-.206-6.739-.852-7.188-5.09-.42-3.962 1.476-6.42 5.594-6.523 2.637-.066 3.464-1.351 3.45-3.72-.009-1.29-.015-2.651 1.531-3.834 2.281 1.363 1.506 3.655 1.722 6.035m-4.095 8.63c1.189-2.515.048-3.932-2.376-4.073-1.55-.09-3.08 1.13-2.721 2.838.544 2.595 2.489 2.712 5.097 1.235zM258.426 353.238c-3.882-1.117-5.21-3.52-4.583-6.96.557-3.064 2.6-4.563 5.651-4.562 2.313 0 3.306-1.057 3.356-3.323.031-1.434-.082-3.027 2.017-4.266 2.218 3.81 1.167 7.816 1.22 11.566.106 7.37-.033 7.372-7.661 7.545m-.082-3.096c2.188.797 3.468-.22 4.119-2.199.347-1.053-.242-1.914-1.09-2.523-1.218-.874-2.514-.858-3.603.14-1.485 1.36-1.439 2.832.574 4.582zM332.974 345.026c1.835-1.323 3.266-3.244 5.877-3.338 3.39-.121 6 .998 6.666 4.48.62 3.241-.672 6.047-4.008 6.949-3.28.887-6.32.096-7.733-3.492-.472-1.196-.497-2.569-.75-4.243-.026-.382-.052-.356-.052-.356zM150.577 343.48c3.586-1.56.892-5.52 4.246-8.233.545 6.388 1.996 11.837.05 17.7-3.67-1.172-.634-6.823-5.653-6.632-4.847.184-1.398 5.446-4.455 6.466-2.662-3.91-2.417-14.199.427-17.128 3.393 1.537-2.078 8.778 5.385 7.827zM248.588 350.173c-4.562-1.202-4.562-1.202-10.591 3.274.863-7.006 4.02-12.072 7.469-18.835l7.496 17.774c-3.04 1.088-3.16-1.034-4.374-2.213zM280.887 352.292c-3.574-5.286-2.315-9.754 2.553-10.543 3.496-.567 7.189 1.835 7.494 4.874.33 3.281-2.893 6.725-6.375 6.652-1.112-.023-2.215-.484-3.672-.983zM206.737 353.041c-2.09.082-3.77.366-5.372.128-3.082-.459-4.404-2.658-4.585-5.58-.192-3.08 1.298-5.366 4.307-5.632 2.562-.227 6.456-1.899 7.55 1.138 1.073 2.98 2.042 7.079-1.9 9.946m-4.73-8.267c-1.93 1.089-3.432 2.39-1.407 4.594 1.368 1.489 3.142 1.472 4.246-.16 1.689-2.496.414-3.96-2.84-4.434zM161.427 353.093c-3.826-2.19-4.743-5.197-2.892-8.6 1.697-3.124 4.837-3.462 7.837-2.279 2.711 1.07 4.179 3.49 3.54 6.424-.942 4.317-4.22 5.098-8.485 4.455m5.205-5.59c-.628-2.82-2.274-3.597-4.674-2.034-1.414.921-1.895 2.486-.491 3.786 2.072 1.919 3.863 1.452 5.165-1.752zM320.799 346.642c.32-1.883-.418-3.775 2.217-4.989 1.804 3.588 2.156 7.557.17 10.54-1.512 2.27-5.226 1.677-7.762.307-2.485-1.342-2.603-6.982-.414-10.824 3.082 2.141-.243 6.35 2.782 8.405 2.189.186 2.694-1.33 3.007-3.439zM303.212 348.02c-.2 1.983.457 3.843-1.629 4.798-3.258-1.748-.286-5.868-3.143-7.986-4.592.76-1.842 5.727-4.518 8.144-2.223-3.47-1.03-7.004-1.066-10.358 7.372-2.15 9.5-1.103 10.356 5.403zM274.262 343.885c.707-1.11 1.214-2.151 2.443-1.708 1.287.464 1.036 1.61.643 2.517-1.24 2.865-2.422 5.781-5.097 8.76-2.072-3.91-4.32-7.15-4.81-11.545 3.818-.404 3.07 3.328 4.941 4.402 1.102-.241 1.098-1.453 1.88-2.426zM175.13 342.078c-.3 3.821.744 7.324-.92 10.694-3.11-2.704-3.405-14.544-.61-18.52 2.595 2.054 1.117 4.913 1.53 7.826z"/><path d="M333.013 344.986c-1.71.644-1.71.644-5.45 8.852-2.238-4.181-1.955-7.853-.857-11.204.695-2.121 3.188-.95 4.884-.68 1.124.179 1.454 1.21 1.4 2.684-.016.388.01.362.023.348zM306.677 339.72c1.78-.79 5.497 2.215 4.61 3.248-2.47 2.874-1.342 6.622-2.77 10.184-3.622-3.05.283-8.28-4.327-10.005.994-1.295 1.685-2.195 2.487-3.426zM178.832 352.554c-1.574-3.514-1.857-6.906.287-11.14 2.297 4.36 1.974 7.77-.287 11.14z"/></svg>