<svg version="1.1" id="Layer_1" xmlns="http://www.w3.org/2000/svg" xmlns:xlink="http://www.w3.org/1999/xlink" x="0px" y="0px"
	 width="100%" viewBox="0 0 496 496" enable-background="new 0 0 496 496" xml:space="preserve">
<path fill="#000000" opacity="1.000000" stroke="none" 
	d="
M152.041809,293.645721 
	C154.227478,293.542297 156.116425,293.822906 158.235336,291.994202 
	C151.938873,287.838531 153.819443,283.266754 157.645370,278.616699 
	C158.361008,277.746887 159.001022,276.568451 159.103043,275.478821 
	C160.008606,265.806976 164.034454,256.840607 165.401703,247.302338 
	C165.892761,243.876648 165.995041,240.235977 165.394791,236.849365 
	C164.426224,231.384888 163.325363,226.047318 165.705841,221.304947 
	C164.936905,219.137878 163.415024,219.068695 162.291611,218.457672 
	C158.381317,216.330872 156.764786,213.059219 158.152847,208.856735 
	C161.545380,198.585587 164.174957,187.872314 169.114792,178.379379 
	C171.741791,173.331039 174.966293,168.803009 176.147232,163.033356 
	C176.735565,160.158981 179.950790,160.035263 182.356506,159.784485 
	C188.181778,159.177277 194.424408,160.319031 198.446518,163.794998 
	C202.519547,167.314941 204.574982,173.120850 208.792297,177.209778 
	C210.741486,179.099609 203.397293,190.610352 199.747284,192.299942 
	C203.669907,200.309326 208.755295,203.593079 217.017883,202.081070 
	C220.703964,201.406555 223.500809,198.407196 224.614151,194.256714 
	C225.186066,192.124664 225.124252,188.172501 228.612045,189.219894 
	C231.814560,190.181625 229.817719,193.412186 229.493454,195.743576 
	C227.517395,209.950989 220.702774,222.807877 218.048126,236.825348 
	C217.627182,239.048065 217.097061,241.250107 216.493942,244.031128 
	C220.396698,241.499222 222.540741,238.363953 224.767105,235.265503 
	C228.725113,229.757156 229.683014,229.669388 235.191116,233.296585 
	C239.555420,236.170563 242.833130,240.180420 246.600815,244.018555 
	C250.545990,241.781357 251.753723,237.572968 253.954620,234.188919 
	C255.680649,231.535019 257.268433,229.462708 260.638550,231.842255 
	C263.059692,233.551788 264.152527,231.707062 265.429260,230.073242 
	C270.026703,224.189957 270.132874,224.042206 276.779785,227.330139 
	C279.888367,228.867813 281.772217,228.529053 283.947174,225.767761 
	C287.651917,221.064194 291.836609,216.741806 295.723419,212.177322 
	C298.237915,209.224365 300.969299,209.178314 303.392944,211.846481 
	C306.136169,214.866501 308.339111,218.347610 310.175476,222.602493 
	C306.819336,222.830917 306.367737,219.618958 304.141998,218.805969 
	C297.393158,221.410736 300.127686,229.559814 295.550232,233.875748 
	C294.300446,230.891327 297.079926,228.077164 295.532349,224.974335 
	C291.852722,226.817947 294.653717,231.296432 291.606934,233.189865 
	C288.668549,232.432556 290.777374,227.788879 287.220001,227.416000 
	C282.547607,230.719971 282.355865,231.179764 286.444427,234.882355 
	C290.164795,238.251541 292.826752,242.442596 295.819427,246.562225 
	C299.698364,244.800430 300.878723,241.338623 302.560303,238.419678 
	C306.788239,231.080536 311.209167,223.898087 316.214111,217.038727 
	C318.646942,213.704498 320.995270,212.143661 325.183411,214.499664 
	C325.936249,209.946152 329.030762,207.686478 332.025848,205.262787 
	C337.821625,200.572754 338.003204,196.897385 332.745789,191.550934 
	C330.999481,189.775070 329.062927,188.163254 327.086395,186.641312 
	C322.110626,182.809952 320.401123,177.669983 320.952576,171.640549 
	C322.137390,158.686188 317.967896,153.815231 305.148865,153.276901 
	C304.505676,153.249893 303.869232,153.062408 303.120026,152.930313 
	C303.388275,150.422302 305.808624,150.044846 306.972382,148.558777 
	C308.272278,146.898911 309.579712,145.260483 307.865631,143.272888 
	C306.395874,141.568542 304.390259,141.237396 302.436951,142.410568 
	C300.015320,143.865021 297.758423,145.592346 295.348877,147.068863 
	C292.920715,148.556824 290.396912,150.076614 287.442322,148.369690 
	C284.524963,146.684265 283.452057,143.995407 283.694366,140.759445 
	C283.855225,138.611374 284.159668,136.470642 284.478485,134.338394 
	C285.748535,125.843788 281.598419,121.838829 273.224426,124.047737 
	C267.268860,125.618706 262.037201,125.480202 257.749084,120.527596 
	C256.770477,119.397400 255.972580,118.112846 255.038788,116.941353 
	C253.373825,114.852570 251.651260,112.793961 249.316406,111.416985 
	C244.950470,108.842201 240.869217,110.813683 240.194839,115.839424 
	C239.934906,117.776581 239.902252,119.744232 239.728104,122.241882 
	C217.432495,118.693474 195.795288,118.876671 175.042740,128.293594 
	C199.543564,107.564560 257.360870,97.486603 302.083954,120.354683 
	C334.506653,136.933289 356.899567,162.348526 368.032349,197.010468 
	C379.120728,231.534210 375.679077,265.266449 359.527863,298.009796 
	C363.111542,299.575287 366.270416,298.748779 369.319824,298.928040 
	C371.716644,299.068939 375.396881,298.317932 375.413696,301.536285 
	C375.433868,305.396210 371.488373,304.232117 369.076477,304.236115 
	C311.584534,304.331421 254.092407,304.369263 196.600327,304.373535 
	C171.103958,304.375427 145.607574,304.281433 120.111206,304.229309 
	C119.111519,304.227264 118.109428,304.248016 117.112732,304.187622 
	C115.392517,304.083374 113.485527,303.827576 113.330742,301.737061 
	C113.157776,299.401093 115.301811,299.252319 116.880249,299.190826 
	C120.795647,299.038300 124.720985,299.140686 129.812332,299.140686 
	C118.607758,276.372223 113.067474,253.744675 115.005028,228.596024 
	C117.023399,231.818771 116.237816,234.684555 117.102898,237.166733 
	C118.026123,239.815720 118.401962,242.653854 119.041092,245.403748 
	C122.871834,261.885803 131.362015,275.849731 142.385345,288.422241 
	C144.836380,291.217712 147.579956,293.655853 152.041809,293.645721 
M269.521667,253.942932 
	C270.643097,255.111542 270.453491,257.226013 272.220734,257.844299 
	C274.067841,257.823944 274.518036,254.529556 276.877838,256.017578 
	C277.384338,258.029694 275.780060,259.104645 274.942230,260.433289 
	C273.098053,263.357758 271.078400,263.546814 269.482483,260.221558 
	C266.575195,254.163818 261.673798,249.948425 256.547302,245.932312 
	C254.787201,244.553421 253.226852,242.541290 250.593719,245.009705 
	C248.203583,247.250305 248.554794,249.083282 250.205719,251.492294 
	C253.122177,255.747986 255.807358,260.162842 258.556519,264.531738 
	C258.922363,265.113068 258.924744,265.784637 258.547089,266.059021 
	C256.427277,267.091034 256.303864,264.145172 254.673676,264.523621 
	C254.346436,265.403595 255.642380,266.610962 253.715027,267.124878 
	C249.922104,261.770416 247.522034,255.388199 243.435562,250.793594 
	C241.478943,256.458618 243.796585,261.826782 245.347900,267.303925 
	C245.986069,269.557129 246.476990,271.815186 246.372208,274.180847 
	C246.287628,276.090698 247.070786,277.789948 249.108139,277.560669 
	C253.793625,277.033386 256.296173,280.016388 259.195557,282.835846 
	C264.470428,287.965210 268.019409,287.763947 273.318481,282.524445 
	C279.376556,276.534454 283.911163,275.983734 290.983978,280.378937 
	C296.131378,283.577637 297.658630,282.958618 299.204865,277.046875 
	C300.621674,271.630157 302.195312,270.500854 306.595490,271.743073 
	C313.777832,273.770752 317.148773,271.930634 319.485199,264.858032 
	C322.128662,256.856018 320.860413,248.176056 324.962830,239.384567 
	C317.647186,241.485672 320.642426,246.651825 319.729828,250.123779 
	C316.701355,251.392502 315.347809,247.945419 312.545746,247.949524 
	C311.853943,248.833939 312.598114,250.959930 310.811981,251.093353 
	C304.105438,252.492630 307.268311,244.288208 303.440308,243.428040 
	C297.425690,246.313110 299.321228,256.551361 290.431915,256.466492 
	C291.690826,258.860504 293.706207,261.390900 293.345490,264.728088 
	C290.639984,265.393433 289.786316,263.471008 288.913696,262.009979 
	C286.867340,258.583771 285.106781,254.987732 283.094299,251.539963 
	C282.270416,250.128510 280.893158,247.690765 280.111053,247.818741 
	C274.123810,248.798401 277.134399,244.976456 277.429901,242.934875 
	C277.748718,240.732147 279.594269,238.434036 276.914948,236.621628 
	C274.157898,234.756638 272.093475,232.254318 270.238739,229.556931 
	C264.522156,234.329803 264.549713,234.397552 268.332581,239.999985 
	C269.497589,241.725372 271.403473,243.410706 269.491272,247.190018 
	C267.318542,242.399994 263.817108,240.287247 259.770813,237.490250 
	C261.959167,244.044830 263.726715,249.772873 269.521667,253.942932 
M168.122131,280.267395 
	C166.917587,282.450775 167.731613,284.560760 168.666336,286.465149 
	C170.734436,290.678711 177.877731,293.402527 179.667786,290.573334 
	C182.242767,286.503601 188.350616,284.424713 186.949570,277.939697 
	C186.612656,276.380249 188.245392,275.342743 189.776413,274.907043 
	C191.907852,274.300446 194.279633,273.691101 194.352859,271.074127 
	C194.417068,268.779938 192.231857,268.065186 190.434494,267.101898 
	C185.363571,264.384155 184.527527,260.942383 187.943130,256.098969 
	C190.468033,252.518585 192.203781,248.607376 193.794586,244.593063 
	C194.277145,243.375381 194.836685,242.164108 193.397079,241.024628 
	C189.984161,238.323273 184.011368,239.327438 182.542664,243.422928 
	C178.172394,255.609344 171.734268,266.972260 168.122131,280.267395 
M205.795349,228.625946 
	C212.039062,231.799393 213.099823,234.873810 209.702774,240.993835 
	C207.286514,245.346909 204.472946,249.478165 202.004150,253.803970 
	C201.033752,255.504318 199.328323,257.245422 201.021255,260.215302 
	C203.753281,254.653671 209.481308,251.929840 210.529907,245.627792 
	C211.287018,241.077530 213.082870,236.707932 214.273773,232.220169 
	C216.027313,225.612076 217.654663,218.970490 219.335770,212.343170 
	C215.461731,215.353790 212.030548,216.976120 207.585098,214.819885 
	C206.422043,214.255737 205.021149,214.170532 203.722351,213.899597 
	C195.924164,212.272903 193.420563,214.054642 192.056107,222.287079 
	C196.385208,224.293579 200.743286,226.313492 205.795349,228.625946 
M233.479095,259.094482 
	C236.613541,262.939789 239.747986,266.785095 243.657394,271.581146 
	C241.933640,262.423706 238.629654,255.173126 236.376495,247.721848 
	C235.101364,247.142105 235.352539,248.990936 233.989380,248.579636 
	C232.441208,243.971069 231.593018,238.817978 228.604660,233.760681 
	C224.819656,241.341492 225.632004,249.103912 224.556427,256.389404 
	C225.692368,257.114868 226.834488,255.628525 227.643860,257.243927 
	C226.993179,261.122711 222.762985,264.282898 224.404984,269.078461 
	C226.916168,266.911011 228.448868,264.233337 229.643845,261.285950 
	C230.210205,259.888977 230.371307,257.715729 233.479095,259.094482 
M236.064835,279.285675 
	C237.559296,277.408051 239.854279,277.881561 242.029083,277.422638 
	C239.840088,276.133698 237.413452,276.820251 235.374847,275.264954 
	C228.189240,269.782867 225.951385,270.619568 222.780777,279.936035 
	C225.325363,278.543152 227.405121,279.082794 229.372299,280.556213 
	C231.623276,282.242218 233.686127,281.766418 236.064835,279.285675 
M335.805481,247.174866 
	C334.281219,246.362640 332.799225,245.986984 331.313446,247.680374 
	C331.765930,248.547592 332.316101,249.369522 332.634735,250.273117 
	C333.010834,251.339691 333.059235,252.527359 333.473663,253.573837 
	C334.662506,256.575775 337.535309,255.683273 340.227539,251.166306 
	C335.608704,253.208588 337.469025,248.967514 335.805481,247.174866 
M329.613647,254.599945 
	C331.341949,251.996445 330.980713,250.980652 327.169678,248.202240 
	C326.129791,250.224915 325.118011,252.192978 324.101410,254.170364 
	C326.006439,255.214935 327.496277,254.527771 329.613647,254.599945 
M330.289948,235.486115 
	C331.365295,237.003586 332.440643,238.521042 334.024109,240.755539 
	C333.891144,235.831879 331.538818,233.661270 328.305176,231.794800 
	C328.100311,233.539658 329.485901,233.967468 330.289948,235.486115 
z"/>
<path fill="#000000" opacity="1.000000" stroke="none" 
	d="
M213.698669,351.041565 
	C212.576523,347.948700 211.461533,345.230774 210.238785,342.250153 
	C213.946228,340.963440 213.770676,344.712891 215.919281,345.918152 
	C217.936325,340.993958 222.323654,341.613373 226.509491,341.729584 
	C227.922089,341.768768 229.357162,342.150482 229.315414,343.875458 
	C229.264648,345.973236 227.268723,344.727783 226.176804,345.363831 
	C228.011429,346.700012 230.849167,347.109497 230.442261,350.232269 
	C230.063385,353.139801 224.457092,354.393372 222.170898,352.381470 
	C220.037186,350.503723 225.134674,347.409943 220.490051,346.169525 
	C218.112564,349.954285 216.206787,354.036530 214.751343,359.847626 
	C268.652740,359.847626 321.977234,359.847626 376.182190,359.847626 
	C374.102600,363.991882 371.524689,363.141296 369.425720,363.143036 
	C324.117249,363.180969 278.808716,363.161774 233.500198,363.155121 
	C195.687653,363.149597 157.875092,363.158600 120.062592,363.110474 
	C117.751511,363.107544 115.087769,363.814423 113.203476,361.187195 
	C115.026283,358.938599 117.342285,359.722015 119.333275,359.716888 
	C147.151215,359.645264 174.969330,359.643524 202.787415,359.624207 
	C211.021866,359.618469 211.021866,359.617645 213.698669,351.041565 
z"/>
<path fill="#000000" opacity="1.000000" stroke="none" 
	d="
M201.016022,316.164154 
	C201.252960,319.679840 198.535889,320.973999 196.870453,322.851013 
	C197.290985,326.182861 200.384933,328.215942 200.645218,331.664490 
	C198.190781,332.866821 195.805496,332.144745 193.543152,332.107483 
	C192.194778,329.660797 192.627686,326.802612 190.294189,325.046295 
	C188.319550,326.968384 190.189499,329.539032 189.161041,331.544952 
	C183.274567,333.049744 182.694077,332.581635 182.826447,326.895996 
	C182.919144,322.915405 182.797607,318.930237 182.837097,314.947754 
	C182.851212,313.525360 182.436066,311.944153 184.161942,311.012146 
	C188.550079,308.642365 198.178299,311.352783 201.016022,316.164154 
M189.349228,318.383453 
	C189.216858,321.366028 190.631653,321.786896 192.967606,320.514130 
	C194.894562,319.464233 194.842178,317.628815 194.642380,315.804230 
	C194.508087,314.577820 193.918991,313.396606 192.604874,313.462280 
	C190.056107,313.589569 189.805252,315.755371 189.349228,318.383453 
z"/>
<path fill="#000000" opacity="1.000000" stroke="none" 
	d="
M307.025848,330.742981 
	C302.113525,333.655334 301.612701,333.359283 296.632690,324.823730 
	C295.027191,325.583771 295.603271,327.042999 295.638855,328.207764 
	C295.673309,329.335022 296.327454,330.452667 295.589783,331.572174 
	C289.226959,333.154388 288.688232,332.641266 289.421814,326.343750 
	C289.708374,323.884125 289.490936,321.369873 289.667358,318.892181 
	C289.843323,316.420990 288.346039,314.053436 289.420868,311.046356 
	C293.824951,310.581909 298.414154,309.961212 302.895386,311.480103 
	C307.067780,312.894318 309.142639,317.099762 306.486511,319.463623 
	C301.671997,323.748383 304.584045,326.871185 307.025848,330.742981 
M297.924805,313.156586 
	C295.434082,315.376923 294.850189,318.027771 295.925903,321.169189 
	C298.408539,321.506744 300.142273,320.709045 300.629822,318.420776 
	C301.075775,316.328003 301.378296,314.011566 297.924805,313.156586 
z"/>
<path fill="#000000" opacity="1.000000" stroke="none" 
	d="
M266.341034,328.937622 
	C265.486725,332.867004 265.486725,332.867004 260.349640,331.718353 
	C259.206696,329.713440 259.908203,327.509033 259.834961,325.395630 
	C259.753662,323.049988 258.580811,322.153992 256.386047,322.139648 
	C253.658859,322.121857 253.714355,323.819061 253.822220,325.852722 
	C254.190384,332.792419 253.932724,332.994873 247.463013,331.575470 
	C247.411484,325.592255 248.266708,319.493164 247.136703,313.442871 
	C246.707474,311.144623 248.417206,310.681763 250.275360,310.717010 
	C252.112030,310.751862 254.180237,310.552460 254.082260,313.333710 
	C254.035721,314.654724 253.816849,315.974457 253.607651,317.283813 
	C253.306961,319.166046 253.580551,320.672119 255.874527,320.831024 
	C258.168884,320.989960 259.826569,320.309814 259.784271,317.584229 
	C259.753510,315.604736 259.778259,313.624359 259.778259,311.641235 
	C261.883759,310.170380 263.926758,310.562683 266.324707,311.261414 
	C266.324707,317.016754 266.324707,322.780151 266.341034,328.937622 
z"/>
<path fill="#000000" opacity="1.000000" stroke="none" 
	d="
M175.227722,311.130432 
	C179.943604,314.207092 180.046814,314.770020 176.952499,319.977051 
	C179.781693,321.967743 182.647400,324.397003 180.719879,328.373810 
	C178.940201,332.045624 175.269714,332.490326 171.687592,332.339935 
	C168.614822,332.210938 165.383667,333.153717 162.264740,331.312408 
	C162.912140,324.712830 162.839859,318.125824 162.292435,311.351410 
	C166.612427,310.268463 170.713715,310.537842 175.227722,311.130432 
M173.790436,328.151947 
	C174.997467,323.372772 174.088638,322.296753 168.527267,322.444580 
	C168.686646,324.935669 167.321869,327.619049 169.702011,329.762482 
	C171.279755,331.183350 172.349258,329.733978 173.790436,328.151947 
M168.616852,317.316254 
	C168.651337,319.365784 169.862640,319.377472 171.260925,318.731842 
	C172.880798,317.983978 173.836655,316.740540 173.504349,314.828400 
	C173.352127,313.952606 172.811646,313.175507 171.978607,313.117157 
	C169.463242,312.940887 169.444153,315.164307 168.616852,317.316254 
z"/>
<path fill="#000000" opacity="1.000000" stroke="none" 
	d="
M222.388138,328.145447 
	C218.839310,332.925964 214.199707,333.161255 209.557571,331.763245 
	C205.008667,330.393311 203.509613,326.325287 203.055725,321.987274 
	C202.464844,316.339996 206.540482,311.307709 211.965363,310.727631 
	C218.743225,310.002930 223.463226,313.622284 224.207108,320.150116 
	C224.516998,322.869476 224.071716,325.454041 222.388138,328.145447 
M214.702301,313.602539 
	C209.734299,316.895874 209.275238,322.013550 209.561066,327.199249 
	C209.680115,329.358917 211.079498,331.097809 213.664230,329.250671 
	C217.575867,326.455200 218.533356,317.573975 214.702301,313.602539 
z"/>
<path fill="#000000" opacity="1.000000" stroke="none" 
	d="
M322.313782,331.987549 
	C319.399994,332.170532 316.900543,332.380280 314.415985,332.266144 
	C309.192627,332.026184 308.687866,331.069031 310.675690,325.670959 
	C312.750397,325.639526 312.912567,327.904602 314.287964,328.713623 
	C316.105499,329.782623 318.062622,331.823395 319.880127,329.247162 
	C321.572144,326.848816 319.084381,325.709229 317.538483,324.643860 
	C315.907013,323.519440 313.993805,322.810333 312.324524,321.732574 
	C310.097412,320.294525 308.547699,318.337646 309.284363,315.476959 
	C309.980225,312.774719 311.968445,311.162323 314.630981,310.891785 
	C318.228760,310.526245 321.893036,310.158051 325.412598,311.294769 
	C326.173798,313.337158 325.388245,314.877625 324.738159,316.447235 
	C322.433411,316.178925 321.984833,314.187195 320.620026,313.305023 
	C319.322113,312.466187 318.095673,312.368256 317.086914,313.646240 
	C316.023529,314.993439 316.551910,316.247345 317.794891,317.056061 
	C319.321533,318.049469 321.000061,318.810516 322.618195,319.662018 
	C325.009491,320.920410 327.351471,322.123718 327.334106,325.446259 
	C327.316803,328.757874 325.595062,330.678589 322.313782,331.987549 
z"/>
<path fill="#000000" opacity="1.000000" stroke="none" 
	d="
M286.163177,315.383179 
	C285.244598,317.857330 284.219940,316.916382 283.187653,315.863129 
	C281.544739,314.186798 279.864471,312.591370 277.101990,313.085449 
	C275.794952,315.127106 275.712067,317.400604 275.645172,319.633179 
	C278.144958,322.157928 279.851410,318.648102 281.966095,318.849976 
	C283.649780,320.477234 283.183594,322.180725 282.593048,323.945129 
	C280.308502,325.009888 278.686584,321.884491 276.163116,323.266937 
	C275.545654,325.490479 275.865234,327.789215 276.835175,329.997681 
	C280.515167,330.635193 282.212891,327.421204 285.075958,326.300842 
	C286.806885,327.972015 286.200897,329.873901 286.156708,331.949371 
	C281.258301,332.798920 276.624725,332.231232 272.019745,332.302856 
	C269.596313,332.340607 268.877594,331.025604 269.246765,328.738464 
	C270.151459,323.133484 269.795135,317.501678 269.168152,311.247711 
	C274.511292,310.170319 279.762695,310.487793 284.932953,310.933044 
	C287.346771,311.140930 286.114685,313.549408 286.163177,315.383179 
z"/>
<path fill="#000000" opacity="1.000000" stroke="none" 
	d="
M230.723236,314.137451 
	C229.575211,315.222626 228.714951,316.197784 227.629333,317.428406 
	C226.191711,315.401581 226.006805,313.570892 226.007889,311.020294 
	C232.456802,310.457275 238.616821,310.478638 244.653580,310.979858 
	C245.449432,313.522797 245.490372,315.413940 243.993729,317.303070 
	C241.923782,317.059326 242.209137,314.106628 239.835785,313.881714 
	C237.189117,317.850281 238.332672,322.412445 238.562683,326.695648 
	C238.887314,332.740387 238.510544,333.233734 232.674591,331.502472 
	C232.674591,327.002747 232.759827,322.554535 232.625977,318.112915 
	C232.582199,316.660187 233.475082,314.610962 230.723236,314.137451 
z"/>
<path fill="#000000" opacity="1.000000" stroke="none" 
	d="
M195.124268,340.209595 
	C195.165344,342.991882 195.154953,345.309998 195.271317,347.621735 
	C195.458817,351.345551 194.414490,353.591370 190.014893,353.342712 
	C186.357193,353.136017 183.276138,352.490417 182.826614,348.251373 
	C182.406570,344.290344 184.302536,341.831818 188.420685,341.729126 
	C191.058411,341.663361 191.885147,340.377930 191.870483,338.009308 
	C191.862488,336.719025 191.855560,335.357971 193.401978,334.175110 
	C195.683105,335.538177 194.907669,337.829620 195.124268,340.209595 
M191.029236,348.839905 
	C192.217728,346.325012 191.076843,344.907959 188.652542,344.766907 
	C187.102524,344.676788 185.573730,345.896393 185.931763,347.604889 
	C186.475739,350.200500 188.420959,350.316620 191.029236,348.839905 
z"/>
<path fill="#000000" opacity="1.000000" stroke="none" 
	d="
M258.426025,353.237762 
	C254.543915,352.121460 253.216812,349.718689 253.842789,346.277435 
	C254.399963,343.214325 256.443542,341.715118 259.494385,341.715576 
	C261.807098,341.715912 262.800323,340.658661 262.849976,338.392853 
	C262.881439,336.958557 262.768127,335.365845 264.866669,334.126740 
	C267.085388,337.936340 266.033936,341.942963 266.087524,345.692871 
	C266.192810,353.063354 266.053772,353.065338 258.426025,353.237762 
M258.343689,350.141602 
	C260.532043,350.938507 261.811798,349.921265 262.463043,347.943359 
	C262.809875,346.890045 262.221130,346.028961 261.372467,345.419830 
	C260.154877,344.545990 258.858612,344.561737 257.770172,345.559326 
	C256.285339,346.920135 256.331268,348.392273 258.343689,350.141602 
z"/>
<path fill="#000000" opacity="1.000000" stroke="none" 
	d="
M332.973816,345.026154 
	C334.808777,343.702728 336.240356,341.782288 338.851196,341.688446 
	C342.240143,341.566589 344.851318,342.686493 345.516724,346.167847 
	C346.136322,349.409485 344.845093,352.214508 341.508820,353.117035 
	C338.228607,354.004486 335.189697,353.213348 333.775848,349.625092 
	C333.304382,348.428619 333.279297,347.056274 333.025146,345.382050 
	C333.000122,344.999756 332.973816,345.026154 332.973816,345.026154 
z"/>
<path fill="#000000" opacity="1.000000" stroke="none" 
	d="
M150.576599,343.479919 
	C154.163223,341.919189 151.469009,337.960724 154.823029,335.246674 
	C155.368286,341.634613 156.819031,347.083984 154.872635,352.946136 
	C151.202332,351.775360 154.239120,346.123932 149.220169,346.314758 
	C144.373413,346.499023 147.822479,351.760620 144.765488,352.780731 
	C142.103363,348.870728 142.347534,338.582306 145.191727,335.652985 
	C148.585205,337.190430 143.114243,344.431000 150.576599,343.479919 
z"/>
<path fill="#000000" opacity="1.000000" stroke="none" 
	d="
M248.588135,350.173035 
	C244.025909,348.971008 244.025909,348.971008 237.996902,353.446716 
	C238.860199,346.440735 242.017288,341.375336 245.465790,334.612274 
	C248.356735,341.467041 250.644516,346.891632 252.961655,352.385834 
	C249.922897,353.474426 249.801651,351.352295 248.588135,350.173035 
z"/>
<path fill="#000000" opacity="1.000000" stroke="none" 
	d="
M280.886536,352.291656 
	C277.313385,347.006134 278.571930,342.537994 283.439545,341.748932 
	C286.935608,341.182220 290.628937,343.584229 290.933899,346.623016 
	C291.263214,349.904480 288.040955,353.348053 284.559235,353.275146 
	C283.446777,353.251892 282.343506,352.790527 280.886536,352.291656 
z"/>
<path fill="#000000" opacity="1.000000" stroke="none" 
	d="
M206.736801,353.040955 
	C204.647598,353.123230 202.967667,353.407104 201.365372,353.168823 
	C198.282806,352.710419 196.961380,350.510864 196.779617,347.589020 
	C196.587921,344.508209 198.077957,342.222931 201.086639,341.956909 
	C203.649216,341.730316 207.542923,340.058105 208.636810,343.095398 
	C209.709656,346.074280 210.678864,350.173645 206.736801,353.040955 
M202.006058,344.774445 
	C200.076477,345.862640 198.574921,347.164673 200.599976,349.367981 
	C201.968155,350.856567 203.741730,350.839539 204.846130,349.207214 
	C206.534592,346.711670 205.260498,345.248016 202.006058,344.774445 
z"/>
<path fill="#000000" opacity="1.000000" stroke="none" 
	d="
M161.426849,353.092834 
	C157.600906,350.902374 156.684357,347.896301 158.534546,344.492554 
	C160.232452,341.368958 163.372360,341.030548 166.372101,342.214417 
	C169.083221,343.284454 170.550537,345.704834 169.911301,348.637939 
	C168.970444,352.954956 165.691879,353.736389 161.426849,353.092834 
M166.631622,347.502594 
	C166.004242,344.683289 164.357788,343.905914 161.958359,345.468842 
	C160.543976,346.390106 160.063248,347.954926 161.466995,349.254913 
	C163.538986,351.173767 165.330170,350.707336 166.631622,347.502594 
z"/>
<path fill="#000000" opacity="1.000000" stroke="none" 
	d="
M320.799011,346.641968 
	C321.118713,344.758514 320.380585,342.866760 323.015686,341.653381 
	C324.820007,345.240631 325.172302,349.210236 323.185394,352.193390 
	C321.673798,354.462769 317.960205,353.870300 315.423523,352.500366 
	C312.938721,351.158417 312.820709,345.518463 315.009705,341.676331 
	C318.091583,343.817230 314.766937,348.025055 317.791534,350.080597 
	C319.980591,350.266602 320.485809,348.751556 320.799011,346.641968 
z"/>
<path fill="#000000" opacity="1.000000" stroke="none" 
	d="
M303.211914,348.020630 
	C303.012878,350.003204 303.668915,351.862640 301.583374,352.817566 
	C298.325500,351.070496 301.296906,346.950043 298.440277,344.831665 
	C293.847656,345.592834 296.597748,350.558899 293.921722,352.976013 
	C291.698730,349.505859 292.892090,345.972321 292.855743,342.618011 
	C300.227692,340.468903 302.355896,341.514557 303.211914,348.020630 
z"/>
<path fill="#000000" opacity="1.000000" stroke="none" 
	d="
M274.261627,343.884705 
	C274.969452,342.775085 275.476440,341.733612 276.705475,342.176697 
	C277.992035,342.640594 277.740509,343.787781 277.348083,344.694275 
	C276.108002,347.558960 274.926453,350.475220 272.251312,353.453186 
	C270.178772,349.543335 267.931122,346.303497 267.440155,341.909119 
	C271.258942,341.505157 270.510162,345.237122 272.382233,346.311493 
	C273.483582,346.069519 273.479645,344.858307 274.261627,343.884705 
z"/>
<path fill="#000000" opacity="1.000000" stroke="none" 
	d="
M175.129425,342.077820 
	C174.830887,345.899292 175.873520,349.401581 174.209366,352.772186 
	C171.099533,350.068207 170.804504,338.227936 173.600922,334.251648 
	C176.194717,336.305969 174.717407,339.165466 175.129425,342.077820 
z"/>
<path fill="#000000" opacity="1.000000" stroke="none" 
	d="
M333.013153,344.986359 
	C331.302490,345.630280 331.302490,345.630280 327.563171,353.837555 
	C325.325134,349.656799 325.607666,345.985382 326.706238,342.633789 
	C327.401428,340.512848 329.894348,341.684601 331.589539,341.953949 
	C332.714447,342.132629 333.044220,343.164001 332.989288,344.638184 
	C332.973816,345.026154 333.000122,344.999756 333.013153,344.986359 
z"/>
<path fill="#000000" opacity="1.000000" stroke="none" 
	d="
M306.677368,339.720520 
	C308.456970,338.929443 312.174408,341.934845 311.286865,342.967834 
	C308.817780,345.841614 309.944763,349.590332 308.516235,353.152405 
	C304.894897,350.101471 308.799744,344.871307 304.190063,343.147217 
	C305.184235,341.851532 305.874695,340.951599 306.677368,339.720520 
z"/>
<path fill="#000000" opacity="1.000000" stroke="none" 
	d="
M178.831726,352.553558 
	C177.258499,349.039612 176.975082,345.648499 179.119324,341.414520 
	C181.416077,345.773529 181.092545,349.183777 178.831726,352.553558 
z"/>
</svg>